<svg width="450" height="450" viewBox="0 0 450 450" fill="none" xmlns="http://www.w3.org/2000/svg">
<g filter="url(#filter0_d)">
<path d="M69 88.6444C69 77.7951 77.7951 69 88.6444 69H361.356C372.205 69 381 77.7951 381 88.6444V361.356C381 372.205 372.205 381 361.356 381H88.6444C77.7951 381 69 372.205 69 361.356V88.6444Z" fill="#333333"/>
</g>
<path d="M86.3333 97.8889C86.3333 91.5069 91.5069 86.3333 97.8889 86.3333H178.778V178.778H86.3333V97.8889Z" fill="#E0E0E0"/>
<rect x="86.3333" y="178.778" width="92.4444" height="92.4444" fill="white"/>
<path d="M86.3333 271.222H178.778V363.667H97.8889C91.5069 363.667 86.3333 358.493 86.3333 352.111V271.222Z" fill="#E0E0E0"/>
<rect x="178.778" y="86.3333" width="92.4444" height="92.4444" fill="white"/>
<rect x="178.778" y="178.778" width="92.4444" height="92.4444" fill="#E0E0E0"/>
<rect x="178.778" y="271.222" width="92.4444" height="92.4444" fill="white"/>
<path d="M271.222 86.3333H352.111C358.493 86.3333 363.667 91.5069 363.667 97.8889V178.778H271.222V86.3333Z" fill="#E0E0E0"/>
<rect x="271.222" y="178.778" width="92.4444" height="92.4444" fill="white"/>
<path d="M271.222 271.222H363.667V352.111C363.667 358.493 358.493 363.667 352.111 363.667H271.222V271.222Z" fill="#E0E0E0"/>
<path d="M116.535 147.341C119.556 151.281 125.727 154.196 132.398 154.196C141.301 154.196 147.683 149.364 147.683 141.065C147.683 134.21 142.719 130.901 134.446 127.749C128.826 125.622 126.909 123.915 126.909 121.525C126.909 118.899 129.115 116.614 133.002 116.614C136.048 116.614 139.147 117.901 141.38 119.634L145.293 113.856C142.824 111.362 138.071 109.234 133.107 109.234C124.545 109.234 119.004 115.117 119.004 121.709C119.004 127.067 122.339 130.796 130.244 133.895C136.81 136.495 138.885 138.202 138.885 141.248C138.885 144.636 136.022 146.711 132.083 146.711C128.301 146.711 124.283 144.82 120.974 141.747L116.535 147.341Z" fill="#333333"/>
<path d="M117.297 294.911V338.244H125.386V319.808L142.903 338.244H154.091L132.766 315.816L151.517 294.911H141.616L125.386 313.137V294.911H117.297Z" fill="#333333"/>
<path d="M220.824 245.8C233.168 245.8 242.675 236.345 242.675 224.133C242.675 211.921 233.115 202.467 220.824 202.467H209.111V245.8H220.824ZM219.931 209.715C227.968 209.715 233.982 215.861 233.982 224.133C233.982 232.406 227.968 238.552 219.931 238.552H217.2V209.715H219.931Z" fill="#333333"/>
<path d="M208.586 110.022V137.966C208.586 148.707 214.127 154.196 224.947 154.196C235.768 154.196 241.309 148.707 241.309 137.966V110.022H233.22V135.681C233.22 143.139 230.778 146.238 224.947 146.238C219.117 146.238 216.675 143.139 216.675 135.681V110.022H208.586Z" fill="#333333"/>
<path d="M208.586 294.911V322.855C208.586 333.596 214.127 339.085 224.947 339.085C235.768 339.085 241.309 333.596 241.309 322.855V294.911H233.22V320.57C233.22 328.028 230.778 331.127 224.947 331.127C219.117 331.127 216.675 328.028 216.675 320.57V294.911H208.586Z" fill="#333333"/>
<path d="M296.067 224.16C296.067 236.661 305.784 246.64 317.917 246.64C330.05 246.64 339.768 236.661 339.768 224.16C339.768 211.659 330.05 201.679 317.917 201.679C305.784 201.679 296.067 211.659 296.067 224.16ZM304.786 224.16C304.786 215.65 310.301 209.479 317.917 209.479C325.533 209.479 331.048 215.65 331.048 224.16C331.048 232.669 325.533 238.84 317.917 238.84C310.301 238.84 304.786 232.669 304.786 224.16Z" fill="#333333"/>
<rect x="176.467" y="86.3333" width="4.62222" height="277.333" fill="#333333"/>
<rect x="86.3333" y="176.467" width="277.333" height="4.62222" fill="#333333"/>
<rect x="86.3333" y="268.911" width="277.333" height="4.62222" fill="#333333"/>
<rect x="268.911" y="86.3333" width="4.62222" height="277.333" fill="#333333"/>
<defs>
<filter id="filter0_d" x="48" y="52" width="360" height="360" filterUnits="userSpaceOnUse" color-interpolation-filters="sRGB">
<feFlood flood-opacity="0" result="BackgroundImageFix"/>
<feColorMatrix in="SourceAlpha" type="matrix" values="0 0 0 0 0 0 0 0 0 0 0 0 0 0 0 0 0 0 127 0"/>
<feOffset dx="3" dy="7"/>
<feGaussianBlur stdDeviation="12"/>
<feColorMatrix type="matrix" values="0 0 0 0 0 0 0 0 0 0 0 0 0 0 0 0 0 0 0.1 0"/>
<feBlend mode="normal" in2="BackgroundImageFix" result="effect1_dropShadow"/>
<feBlend mode="normal" in="SourceGraphic" in2="effect1_dropShadow" result="shape"/>
</filter>
</defs>
</svg>
